<svg id="_x31__x2C_5" height="512" viewBox="0 0 24 24" width="512" xmlns="http://www.w3.org/2000/svg"><path d="m18.446 12.562c-.177 0-.347-.07-.472-.196l-6.338-6.338c-.261-.261-.261-.683 0-.944l3.765-3.765c.753-.757 2.076-.758 2.832 0l4.451 4.451c.379.378.587.881.587 1.416s-.208 1.038-.587 1.416c-.002.002-.003.003-.005.005-.112.111-3.761 3.76-3.761 3.76-.126.124-.296.195-.472.195z" fill="#90a4ae"/><path d="m8.502 20.342c-.545 0-1.08-.222-1.467-.608l-2.767-2.767c-.387-.386-.608-.921-.608-1.467 0-.102.011-.217.024-.318l.926-5.562c.068-.42.268-.809.58-1.122l3.229-3.229c.773-.774 2.161-.774 2.934 0l7.379 7.379c.387.386.608.921.608 1.467 0 .545-.222 1.08-.608 1.467l-3.228 3.228c-.313.312-.702.513-1.126.581l-5.53.921c-.129.019-.244.03-.346.03z" fill="#607d8b"/><path d="m13.905 12.25c-.346 0-.692-.132-.955-.394l-.806-.806c-.526-.527-.526-1.384 0-1.91l2.994-2.994c.526-.526 1.383-.527 1.91 0l.806.806c.526.527.526 1.384 0 1.91l-2.995 2.995c-.262.261-.608.393-.954.393z" fill="#cfd8dc"/><path d="m3.56 24h-3.56v-3.56l3.91-3.91 3.56 3.56z" fill="#90a4ae"/><path d="m19.11 13.07-1.06-1.06 2.115-2.115c1.097-1.097 1.739-1.739 2.153-2.077l-.038-.038c.142-.142.22-.33.22-.53s-.078-.389-.22-.53l-5-5c-.283-.283-.777-.283-1.059 0l-4.231 4.23c-.293.293-.768.293-1.061 0s-.293-.768 0-1.061l4.23-4.23c.846-.85 2.332-.852 3.181 0l5 5c.426.425.66.99.66 1.591s-.234 1.166-.659 1.591c-.002.002-.004.004-.006.006-.126.125-4.225 4.223-4.225 4.223z"/><path d="m8.25 21c-.591 0-1.171-.24-1.59-.66l-3-3c-.42-.419-.66-.999-.66-1.59 0-.11.012-.235.026-.345l1.004-6.029c.074-.455.291-.877.629-1.216l3.5-3.5c.838-.839 2.343-.839 3.181 0l2.5 2.5c.293.293.293.768 0 1.061s-.768.293-1.061 0l-2.5-2.5c-.279-.281-.779-.281-1.059-.001l-3.5 3.5c-.113.114-.186.252-.209.399l-1.001 6.005c-.002.021-.01.076-.01.126 0 .197.08.39.22.53l3 3c.176.176.438.238.685.206l5.972-.996c.151-.024.29-.097.404-.211l3.5-3.5c.14-.14.22-.333.22-.53s-.08-.39-.22-.53l-2.5-2.5c-.293-.293-.293-.768 0-1.061s.768-.293 1.061 0l2.5 2.5c.418.421.658 1.001.658 1.592s-.24 1.171-.66 1.59l-3.5 3.5c-.339.338-.761.556-1.221.63l-5.995 1c-.139.018-.264.03-.374.03z"/><path d="m13.653 12.999c-.425 0-.851-.162-1.175-.485l-.991-.991c-.647-.648-.647-1.703 0-2.351l3.685-3.685c.647-.647 1.702-.648 2.351 0l.991.991c.647.648.647 1.703 0 2.351l-3.685 3.685c-.325.323-.75.485-1.176.485zm-1.105-2.768c-.063.064-.063.167 0 .231l.99.99c.064.063.167.063.23 0l3.684-3.684c.063-.063.063-.167 0-.23l-.99-.99c-.064-.063-.167-.063-.23 0z"/><path d="m.75 21c-.192 0-.384-.073-.53-.22-.293-.293-.293-.768 0-1.061l3.25-3.25c.293-.293.768-.293 1.061 0s.293.768 0 1.061l-3.25 3.25c-.147.147-.339.22-.531.22z"/><path d="m3.75 24c-.192 0-.384-.073-.53-.22-.293-.293-.293-.768 0-1.061l3.25-3.25c.293-.293.768-.293 1.061 0s.293.768 0 1.061l-3.25 3.25c-.147.147-.339.22-.531.22z"/></svg>